<svg width="16" height="11" viewBox="0 0 16 11" fill="none" xmlns="http://www.w3.org/2000/svg">
<path d="M15.2949 4.98519C15.5856 4.76495 15.6882 4.44171 15.5628 4.14122C15.4372 3.84074 15.1098 3.62624 14.7076 3.58072L11.1314 3.17679C10.9791 3.15954 10.8475 3.08528 10.7795 2.97792L9.18073 0.458884C9.00121 0.175875 8.63686 0 8.23081 0C7.82505 0 7.46069 0.175875 7.28118 0.458884L5.6821 2.97792C5.61408 3.08528 5.48218 3.15954 5.32987 3.17679L1.75376 3.58095C1.35185 3.62624 1.02446 3.84074 0.898772 4.14122C0.773378 4.44171 0.876 4.76495 1.16671 4.98519L3.75416 6.9458C3.86447 7.02948 3.91504 7.14995 3.88902 7.26766L3.27831 10.0364C3.2097 10.3474 3.37088 10.6557 3.69945 10.8415C4.02772 11.0275 4.45507 11.0516 4.81499 10.9043L8.01314 9.59703C8.14948 9.54139 8.31214 9.54139 8.44847 9.59703L11.6469 10.9043C11.8031 10.9682 11.9722 10.9997 12.1405 10.9997C12.3591 10.9997 12.5767 10.9466 12.7625 10.8415C13.091 10.6557 13.2522 10.3474 13.1836 10.0364L12.5726 7.26789C12.5466 7.14995 12.5971 7.02971 12.7075 6.94603L15.2949 4.98519ZM11.99 7.3456L12.6007 10.1141C12.6314 10.2534 12.5619 10.3865 12.4147 10.4697C12.2671 10.5527 12.0834 10.5628 11.9223 10.4976L8.72381 9.1901C8.56973 9.12734 8.39997 9.09561 8.23081 9.09561C8.06164 9.09561 7.89218 9.12734 7.7378 9.19033L4.53995 10.4976C4.37818 10.5628 4.19452 10.5527 4.04724 10.4697C3.89996 10.3865 3.83076 10.2536 3.86122 10.1141L4.47193 7.3456C4.53078 7.07845 4.41692 6.80579 4.16731 6.61681L1.57957 4.65597C1.44915 4.55712 1.40479 4.4178 1.46127 4.2833C1.51746 4.14858 1.65853 4.05616 1.83864 4.0357L5.41446 3.63176C5.75959 3.59291 6.05799 3.42462 6.21207 3.18138L7.81115 0.662348C7.89159 0.535442 8.04863 0.459804 8.23051 0.459804C8.41269 0.459804 8.56943 0.535442 8.65017 0.662348L10.2492 3.18138C10.4033 3.42462 10.7014 3.59291 11.0466 3.63176L14.6227 4.0357C14.8028 4.05616 14.9439 4.14858 15 4.2833C15.0562 4.4178 15.0122 4.55712 14.8817 4.65597L12.2943 6.61658C12.0447 6.80579 11.9308 7.07822 11.99 7.3456Z" fill="#9D2929"/>
</svg>
