<svg width="15" height="11" viewBox="0 0 15 11" fill="none" xmlns="http://www.w3.org/2000/svg">
<path d="M14.4487 4.98486C14.7394 4.76462 14.842 4.44139 14.7167 4.14091C14.591 3.84044 14.2636 3.62594 13.8614 3.58042L10.2853 3.17649C10.133 3.15925 10.0014 3.08499 9.93342 2.97763L8.33467 0.458875C8.15515 0.175871 7.79081 0 7.38476 0C6.97901 0 6.61467 0.175871 6.43515 0.458875L4.83611 2.97786C4.76809 3.08522 4.63619 3.15948 4.48389 3.17672L0.907848 3.58065C0.505943 3.62594 0.178267 3.84067 0.0525796 4.14114C-0.0728124 4.44162 0.029808 4.76485 0.320516 4.98509L2.90791 6.94566C3.01822 7.02934 3.06879 7.14981 3.04277 7.26752L2.43237 10.0359C2.37825 10.2796 2.46046 10.5167 2.66334 10.7036C2.97859 10.9948 3.52896 11.0836 3.96901 10.9038L7.1671 9.59661C7.30077 9.54212 7.46905 9.54258 7.60242 9.59661L10.8008 10.9038C10.9564 10.9675 11.1223 10.9997 11.2935 10.9997C11.6061 10.9997 11.9024 10.8916 12.1062 10.7036C12.3094 10.5167 12.3913 10.2792 12.3372 10.0359L11.7265 7.26752C11.7004 7.14958 11.751 7.02934 11.8613 6.94566L14.4487 4.98486Z" fill="#9D2929"/>
</svg>
