<svg width="18" height="21" viewBox="0 0 18 21" fill="none" xmlns="http://www.w3.org/2000/svg">
<path d="M2.7931 20.1915H8.60443V13.022H6.51653V10.6585H8.60443V7.70406C8.60443 6.07496 9.77521 4.74962 11.2143 4.74962H13.8242V7.11317H11.7363C11.1606 7.11317 10.6923 7.64328 10.6923 8.29494V10.6585H13.73L13.382 13.022H10.6923V20.1915H15.3901C16.8292 20.1915 18 18.8661 18 17.237V2.97696C18 1.34786 16.8292 0.022522 15.3901 0.022522H2.7931C1.354 0.022522 0.183228 1.34786 0.183228 2.97696V17.237C0.183228 18.8661 1.354 20.1915 2.7931 20.1915ZM1.22718 2.97696C1.22718 1.99953 1.92967 1.2043 2.7931 1.2043H15.3901C16.2535 1.2043 16.956 1.99953 16.956 2.97696V17.237C16.956 18.2145 16.2535 19.0097 15.3901 19.0097H11.7363V14.2038H14.2664L14.9623 9.47672H11.7363V8.29494H14.8681V3.56785H11.2143C9.19954 3.56785 7.56048 5.42329 7.56048 7.70406V9.47672H5.47258V14.2038H7.56048V19.0097H2.7931C1.92967 19.0097 1.22718 18.2145 1.22718 17.237V2.97696Z" fill="white"/>
</svg>
