<svg width="19" height="21" viewBox="0 0 19 21" fill="none" xmlns="http://www.w3.org/2000/svg">
<path d="M3.59621 20.1915H16.1932C17.6323 20.1915 18.8031 18.8661 18.8031 17.237V2.97696C18.8031 1.34786 17.6323 0.022522 16.1932 0.022522H3.59621C2.1571 0.022522 0.986328 1.34786 0.986328 2.97696V17.237C0.986328 18.8661 2.1571 20.1915 3.59621 20.1915ZM2.03028 2.97696C2.03028 1.99953 2.73277 1.2043 3.59621 1.2043H16.1932C17.0566 1.2043 17.7591 1.99953 17.7591 2.97696V17.237C17.7591 18.2145 17.0566 19.0097 16.1932 19.0097H3.59621C2.73277 19.0097 2.03028 18.2145 2.03028 17.237V2.97696Z" fill="white"/>
<path d="M9.8947 15.425C12.485 15.425 14.5925 13.0393 14.5925 10.107C14.5925 7.17474 12.485 4.78903 9.8947 4.78903C7.3044 4.78903 5.19693 7.17474 5.19693 10.107C5.19693 13.0393 7.3044 15.425 9.8947 15.425ZM9.8947 5.97081C11.9095 5.97081 13.5485 7.82626 13.5485 10.107C13.5485 12.3878 11.9095 14.2432 9.8947 14.2432C7.87993 14.2432 6.24088 12.3878 6.24088 10.107C6.24088 7.82626 7.87993 5.97081 9.8947 5.97081Z" fill="white"/>
<path d="M14.8178 5.68401C15.671 5.68401 16.3651 4.89826 16.3651 3.93249C16.3651 2.96672 15.671 2.18097 14.8178 2.18097C13.9647 2.18097 13.2706 2.96672 13.2706 3.93249C13.2706 4.89826 13.9647 5.68401 14.8178 5.68401ZM14.8178 3.34865C15.1022 3.34865 15.3336 3.61062 15.3336 3.93249C15.3336 4.25436 15.1022 4.51633 14.8178 4.51633C14.5335 4.51633 14.3021 4.25436 14.3021 3.93249C14.3021 3.61062 14.5335 3.34865 14.8178 3.34865Z" fill="white"/>
</svg>
