<svg width="19" height="17" viewBox="0 0 19 17" fill="none" xmlns="http://www.w3.org/2000/svg">
<path d="M18.6062 2.42937C17.4854 2.48784 17.5099 2.48307 17.3832 2.49508L18.0469 0.349264C18.0469 0.349264 15.9751 1.21205 15.4498 1.36639C14.0704 -0.0371204 12.02 -0.0991327 10.5541 0.920763C9.35374 1.75616 8.70942 3.19075 8.92433 4.86755C6.58808 4.50055 4.61966 3.24692 3.06556 1.13357L2.57404 0.465287L2.20675 1.22882C1.74255 2.19363 1.5884 3.29678 1.77259 4.33498C1.84817 4.76091 1.97662 5.16715 2.15455 5.54753L1.7329 5.36257L1.68287 6.16012C1.63217 6.97028 1.87046 7.916 2.32039 8.6897C2.44708 8.90759 2.6102 9.14686 2.81695 9.38291L2.59905 9.34506L2.86493 10.2589C3.21441 11.4596 3.94028 12.3886 4.88228 12.905C3.9415 13.3569 3.18151 13.6453 1.93231 14.1105L0.789398 14.5358L1.84504 15.1891C2.24753 15.4383 3.66978 16.2703 5.07503 16.5199C8.19873 17.0744 11.7157 16.6228 14.0833 14.2089C16.0776 12.1758 16.7319 9.28366 16.596 6.27398C16.5755 5.81835 16.6857 5.3835 16.9065 5.04974C17.3487 4.38145 18.6034 2.43383 18.6062 2.42937ZM16.0717 4.34191C15.7051 4.89602 15.5215 5.6037 15.5544 6.3343C15.6915 9.37014 14.9618 11.7245 13.3855 13.3315C11.544 15.209 8.57376 15.9459 5.23666 15.3533C4.63231 15.2461 4.0077 15.0059 3.49076 14.766C4.53811 14.3581 5.3469 13.9944 6.65306 13.2946L8.47644 12.3177L6.4633 12.1718C5.499 12.1019 4.69606 11.5729 4.20249 10.7139C4.46457 10.6967 4.71726 10.6487 4.96887 10.5693L6.8889 9.96395L4.95283 9.42723C4.01205 9.16641 3.4758 8.5292 3.19157 8.04049C3.00494 7.71935 2.88301 7.39036 2.80988 7.08707C3.00399 7.146 3.23031 7.18801 3.59529 7.22894L5.38727 7.4296L3.96747 6.17581C2.94445 5.27255 2.53448 3.91551 2.83503 2.61095C6.02778 6.35969 9.77648 6.07794 10.1538 6.17704C10.0708 5.26378 10.0686 5.26163 10.0468 5.17469C9.56361 3.24092 10.6227 2.25903 11.1003 1.92666C12.0981 1.23252 13.6818 1.12788 14.7787 2.27149C15.0157 2.51831 15.3361 2.61541 15.6359 2.53108C15.9051 2.45538 16.126 2.37521 16.3422 2.28796L15.892 3.74333L16.4667 3.74379C16.3583 3.90844 16.2282 4.10555 16.0717 4.34191Z" fill="white"/>
</svg>
